<!DOCTYPE svg PUBLIC "-//W3C//DTD SVG 1.1//EN" "http://www.w3.org/Graphics/SVG/1.1/DTD/svg11.dtd">
<!-- Uploaded to: SVG Repo, www.svgrepo.com, Transformed by: SVG Repo Mixer Tools -->
<svg height="155px" width="155px" version="1.1" id="Capa_1" xmlns="http://www.w3.org/2000/svg" xmlns:xlink="http://www.w3.org/1999/xlink" viewBox="0 0 351.92 351.92" xml:space="preserve" fill="#000000" stroke="#000000">
<g id="SVGRepo_bgCarrier" stroke-width="0"/>
<g id="SVGRepo_tracerCarrier" stroke-linecap="round" stroke-linejoin="round" stroke="#CCCCCC" stroke-width="2.81536"/>
<g id="SVGRepo_iconCarrier"> <g> <path style="fill:#ffffff;" d="M327.859,299.06l-49.018-50.128l23.999-23.468l12.799-12.513l-8.342-8.533l-12.799,12.513 l-40.3-41.213l95.339-97.499l-18.981-60.6L269.544,0L175.96,95.709L82.376,0.006l-61.011,17.62l-18.981,60.6l95.339,97.499 l-40.3,41.213l-12.799-12.513l-8.342,8.533L49.08,225.47l23.999,23.468l-49.018,50.128l-13.33-13.038l-8.342,8.533l13.33,13.038 l31.994,31.284l13.33,13.038l8.342-8.533l-13.33-13.038l49.018-50.128l23.999,23.468l12.799,12.513l8.342-8.533l-12.799-12.513 l38.546-39.417l38.546,39.417l-12.799,12.513l8.342,8.533l12.799-12.513l23.999-23.468l49.018,50.128l-13.33,13.038l8.342,8.533 l13.33-13.038l31.994-31.284l13.33-13.038l-8.342-8.533L327.859,299.06z M47.523,322.002l-14.935-14.601l49.018-50.128 l14.929,14.601L47.523,322.002z M304.397,322.002l-49.018-50.128l14.929-14.601l49.018,50.128L304.397,322.002z"/> </g> </g>
</svg>