<!DOCTYPE svg PUBLIC "-//W3C//DTD SVG 1.1//EN" "http://www.w3.org/Graphics/SVG/1.1/DTD/svg11.dtd">
<!-- Uploaded to: SVG Repo, www.svgrepo.com, Transformed by: SVG Repo Mixer Tools -->
<svg fill="#ccd1d1" version="1.1" id="Capa_1" xmlns="http://www.w3.org/2000/svg" xmlns:xlink="http://www.w3.org/1999/xlink" width="800px" height="800px" viewBox="0 0 35.668 35.668" xml:space="preserve" transform="rotate(-45)" stroke="#ccd1d1">
<g id="SVGRepo_bgCarrier" stroke-width="0"/>
<g id="SVGRepo_tracerCarrier" stroke-linecap="round" stroke-linejoin="round"/>
<g id="SVGRepo_iconCarrier"> <g> <path d="M33.168,35.001H2.5c-1.381,0-2.5-1.119-2.5-2.5s1.119-2.5,2.5-2.5h30.668c1.381,0,2.5,1.119,2.5,2.5 S34.549,35.001,33.168,35.001z M27.168,25.167c0-1.381-1.119-2.5-2.5-2.5H11c-1.381,0-2.5,1.119-2.5,2.5s1.119,2.5,2.5,2.5h13.668 C26.049,27.667,27.168,26.548,27.168,25.167z M35.668,17.835c0-1.381-1.119-2.5-2.5-2.5H2.5c-1.381,0-2.5,1.119-2.5,2.5 s1.119,2.5,2.5,2.5h30.668C34.549,20.335,35.668,19.216,35.668,17.835z M27.168,10.501c0-1.381-1.119-2.5-2.5-2.5H11 c-1.381,0-2.5,1.119-2.5,2.5s1.119,2.5,2.5,2.5h13.668C26.049,13.001,27.168,11.882,27.168,10.501z M35.668,3.167 c0-1.381-1.119-2.5-2.5-2.5H2.5c-1.381,0-2.5,1.119-2.5,2.5s1.119,2.5,2.5,2.5h30.668C34.549,5.667,35.668,4.548,35.668,3.167z"/> </g> </g>
</svg>